<svg width="44" height="36" viewBox="0 0 44 36" fill="none" xmlns="http://www.w3.org/2000/svg">
<path fill-rule="evenodd" clip-rule="evenodd" d="M0.750889 32.982C3.02692 36.4 8.749 35.026 12.583 33.616C21.9752 30.164 34.2393 21.226 40.4074 12.952C44.7895 7.074 44.3715 3.828 43.2475 2.138C42.5975 1.162 41.2274 0 38.3854 0C33.2113 0 26.2052 3.594 21.7772 6.32C17.4151 3.748 10.641 0.428 5.61295 0.428C2.78292 0.428 1.4129 1.56 0.76489 2.512C-0.159123 3.864 -0.617129 6.222 1.6029 10.142C1.2889 10.704 1.11089 11.352 1.11089 12.042C1.11089 14.176 2.81092 15.906 4.90494 15.906C6.99897 15.906 8.699 14.176 8.699 12.042C8.699 9.908 7.00097 8.178 4.90494 8.178L4.48494 8.202C3.31892 6.084 3.33292 4.902 3.59493 4.518C3.84093 4.154 4.59694 3.94 5.61295 3.94C7.20498 3.94 9.283 4.422 11.643 5.29C13.9471 6.14 16.3091 7.28 18.4751 8.472C13.9771 11.568 10.527 14.56 7.46498 17.668C6.09896 19.076 4.75494 20.606 3.59093 22.166C-0.791131 28.046 -0.373125 31.292 0.750889 32.982ZM40.3914 4.106C40.7634 4.664 40.6714 6.79 37.6594 10.828C33.7853 16.026 27.6052 21.13 22.1872 24.682C17.7731 27.576 10.313 31.61 5.61295 31.61C4.59094 31.61 3.85893 31.392 3.60693 31.014C2.86092 29.892 4.44894 25.72 10.085 19.964C12.175 21.826 14.4291 23.606 16.7171 25.228L16.7431 25.246C17.9471 24.582 19.0031 23.948 20.0471 23.286C17.3171 21.438 14.7551 19.442 12.605 17.54C15.4651 14.946 18.6491 12.512 21.8112 10.438C24.5652 12.166 27.2212 14.092 29.6113 16.06C30.4853 15.276 31.3393 14.464 32.1533 13.638C29.9993 11.842 27.6392 10.078 25.1092 8.404C28.5333 6.428 34.4793 3.51 38.3854 3.51C39.4074 3.51 40.1394 3.728 40.3914 4.106Z" fill="#C86DD7"/>
</svg>
