<svg width="42" height="48" viewBox="0 0 42 48" fill="none" xmlns="http://www.w3.org/2000/svg">
<path fill-rule="evenodd" clip-rule="evenodd" d="M0 6C0 2.686 2.688 0 6 0C9.312 0 12 2.686 12 6C12 9.314 9.312 12 6 12C2.688 12 0 9.314 0 6ZM8 6C8 4.898 7.104 4 6 4C4.896 4 4 4.898 4 6C4 7.102 4.896 8 6 8C7.104 8 8 7.102 8 6ZM38 24C38 22.896 37.104 22 36 22C34.896 22 34 22.896 34 24C34 25.102 34.896 26 36 26C37.104 26 38 25.104 38 24ZM6 40C7.104 40 8 40.898 8 42C8 43.102 7.104 44 6 44C4.896 44 4 43.102 4 42C4 40.898 4.896 40 6 40ZM36 18C32.688 18 30 20.686 30 24C30 27.314 32.688 30 36 30C39.312 30 42 27.314 42 24C42 20.686 39.312 18 36 18ZM0 42C0 38.686 2.686 36 6 36C9.312 36 12 38.686 12 42C12 45.314 9.312 48 6 48C2.686 48 0 45.314 0 42Z" fill="#C86DD7"/>
</svg>
