<svg width="32" height="32" viewBox="0 0 32 32" fill="none" xmlns="http://www.w3.org/2000/svg">
<path fill-rule="evenodd" clip-rule="evenodd" d="M16 0C7.164 0 0 7.164 0 16C0 24.836 7.164 32 16 32C24.836 32 32 24.836 32 16C32 7.164 24.836 0 16 0ZM16 2.66667C23.352 2.66667 29.3333 8.648 29.3333 16C29.3333 23.352 23.352 29.3333 16 29.3333C8.648 29.3333 2.66667 23.352 2.66667 16C2.66667 8.648 8.648 2.66667 16 2.66667ZM12.6667 8H19.3333C21.9107 8 24 10.0893 24 12.6667V19.3333C24 21.9107 21.9107 24 19.3333 24H12.6667C10.0893 24 8 21.9107 8 19.3333V12.6667C8 10.0893 10.0893 8 12.6667 8ZM12.6667 9.33333C10.824 9.33333 9.33333 10.824 9.33333 12.6667V19.3333C9.33333 21.176 10.824 22.6667 12.6667 22.6667H19.3333C21.176 22.6667 22.6667 21.176 22.6667 19.3333V12.6667C22.6667 10.824 21.176 9.33333 19.3333 9.33333H12.6667ZM20.3333 11.6667C20.7015 11.6667 21 11.9652 21 12.3333C21 12.7015 20.7015 13 20.3333 13C19.9651 13 19.6667 12.7015 19.6667 12.3333C19.6667 11.9652 19.9651 11.6667 20.3333 11.6667ZM16 12C18.2091 12 20 13.7909 20 16C20 18.2091 18.2091 20 16 20C13.7909 20 12 18.2091 12 16C12 13.7909 13.7909 12 16 12ZM16 13.3333C14.5272 13.3333 13.3333 14.5272 13.3333 16C13.3333 17.4728 14.5272 18.6667 16 18.6667C17.4728 18.6667 18.6667 17.4728 18.6667 16C18.6667 14.5272 17.4728 13.3333 16 13.3333Z" fill="#C86DD7"/>
</svg>
