<svg width="42" height="44" viewBox="0 0 42 44" fill="none" xmlns="http://www.w3.org/2000/svg">
<path fill-rule="evenodd" clip-rule="evenodd" d="M21.176 0.042L22 0C30.562 0 37.962 4.9 41.6 12.042C40.166 12.1 38.82 12.462 37.604 13.064C34.494 7.658 28.672 4 22 4C22 2.594 21.702 1.256 21.176 0.042ZM41.6 31.958C37.962 39.1 30.562 44 22 44L21.176 43.958C21.702 42.744 22 41.406 22 40C28.672 40 34.494 36.342 37.604 30.936C38.82 31.54 40.166 31.902 41.6 31.958ZM0 22C0 26.57 1.394 30.812 3.78 34.33C4.562 33.198 5.582 32.252 6.754 31.524C5.02 28.758 4 25.5 4 22C4 18.5 5.02 15.242 6.754 12.476C5.582 11.748 4.564 10.802 3.78 9.67C1.394 13.188 0 17.43 0 22Z" fill="#FFC300"/>
</svg>
