<svg width="26" height="34" viewBox="0 0 26 34" fill="none" xmlns="http://www.w3.org/2000/svg">
<path fill-rule="evenodd" clip-rule="evenodd" d="M0 0V16H14V12H4V0H0ZM21.708 15.366L25.704 15.684C25.44 17.392 25.002 19.036 24.4 20.604L20.8 18.794C21.2 17.692 21.506 16.548 21.708 15.366ZM13.786 28.132L16.612 31.018C15.196 32.108 13.656 33.042 12.014 33.796L10.676 29.998C11.774 29.468 12.814 28.844 13.786 28.132ZM19.064 22.4C18.394 23.492 17.626 24.514 16.766 25.456L19.574 28.322C20.74 27.068 21.772 25.69 22.652 24.206L19.064 22.4ZM21.394 7.282H25.546C25.83 8.71 25.98 10.188 26 11.698L21.97 11.376C21.916 9.97 21.72 8.604 21.394 7.282Z" fill="#C86DD7"/>
</svg>
