<svg width="29" height="48" viewBox="0 0 29 48" fill="none" xmlns="http://www.w3.org/2000/svg">
<path fill-rule="evenodd" clip-rule="evenodd" d="M3.16204 8.342C2.00203 7.77 0.976013 7.308 0 6.904C1.54002 2.744 3.76405 0 6.64209 0C9.44613 0 11.6302 2.602 13.1622 6.584C12.1782 7.006 11.1661 7.478 10.0181 8.062C8.84212 4.928 7.5021 3.512 6.64209 3.512C5.75808 3.512 4.36206 5.012 3.16204 8.342ZM6.64209 44.488C5.78408 44.488 4.44206 43.072 3.26604 39.938C2.10603 40.528 1.10401 40.994 0.122002 41.416C1.65602 45.398 3.83805 48 6.64209 48C9.52013 48 11.7442 45.256 13.2842 41.096C12.3142 40.694 11.2902 40.234 10.1221 39.658C8.92212 42.988 7.5261 44.488 6.64209 44.488ZM27.4964 29.644C27.4964 30.296 27.3384 30.91 27.0564 31.45C29.2584 35.35 28.8004 37.702 27.8784 39.05C27.2304 40.002 25.8603 41.134 23.0303 41.134C18.6883 41.134 13.0242 38.618 9.17212 36.544C10.3361 35.802 11.5302 34.99 12.4902 34.306C15.3642 35.732 19.8263 37.622 23.0303 37.622C24.0463 37.622 24.8003 37.408 25.0483 37.046C25.3063 36.668 25.3243 35.52 24.2183 33.472L23.7023 33.508C21.6063 33.508 19.9083 31.778 19.9083 29.644C19.9083 27.51 21.6063 25.78 23.7023 25.78C25.7983 25.78 27.4964 27.51 27.4964 29.644Z" fill="#FFC300"/>
</svg>
